<?xml version="1.0" encoding="utf-8"?>
<!-- Generator: Adobe Illustrator 24.0.0, SVG Export Plug-In . SVG Version: 6.00 Build 0)  -->
<svg version="1.1" id="Capa_1" xmlns="http://www.w3.org/2000/svg" xmlns:xlink="http://www.w3.org/1999/xlink" x="0px" y="0px"
	 viewBox="0 0 418.1 418.1" style="enable-background:new 0 0 418.1 418.1;" xml:space="preserve">
<style type="text/css">
	.st0{fill:#FFE600;}
</style>
<path id="XMLID_20_" class="st0" d="M134.3,151H39.4c-3.9,0-7,3.1-7,7v116.4c0,3.9,3.1,7,7,7h94.9c3.9,0,7-3.1,7-7V158
	C141.3,154.1,138.2,151,134.3,151z M127.3,267.3H46.4V165h80.9V267.3z M161.6,281.3h94.9c3.9,0,7-3.1,7-7v-40c0-3.9-3.1-7-7-7h-94.9
	c-3.9,0-7,3.1-7,7v40C154.6,278.2,157.7,281.3,161.6,281.3z M168.6,241.3h80.9v26h-80.9V241.3z M398.5,25.3h-169V7c0-3.9-3.1-7-7-7
	h-26.9c-3.9,0-7,3.1-7,7v18.3h-169C8.8,25.3,0,34.1,0,44.9v252.6c0,10.8,8.8,19.6,19.6,19.6h112.1l-28,87H92.1c-3.9,0-7,3.1-7,7
	s3.1,7,7,7H159c3.9,0,7-3.1,7-7s-3.1-7-7-7h-9.9l28-87h63.8l28,87h-9.9c-3.9,0-7,3.1-7,7s3.1,7,7,7h66.9c3.9,0,7-3.1,7-7s-3.1-7-7-7
	h-11.5l-28-87h112.1c10.8,0,19.6-8.8,19.6-19.6V44.9C418.1,34.1,409.3,25.3,398.5,25.3z M202.6,14h12.9v11.3h-12.9V14z M134.4,404.1
	h-16.1l28-87h16.1L134.4,404.1z M299.7,404.1h-16.1l-28-87h16.1L299.7,404.1z M404.1,297.4c0,3.1-2.5,5.6-5.6,5.6H277
	c-0.2,0-0.3,0-0.5,0h-30.3c-0.2,0-0.3,0-0.5,0h-73.5c-0.2,0-0.3,0-0.5,0h-30.3c-0.2,0-0.3,0-0.5,0H19.6c-3.1,0-5.6-2.5-5.6-5.6V74.4
	h390.1V297.4z M404.1,60.4H14V44.9c0-3.1,2.5-5.6,5.6-5.6h378.8c3.1,0,5.6,2.5,5.6,5.6V60.4z M51,130.6c10.8,0,19.6-8.8,19.6-19.6
	c0-10.8-8.8-19.6-19.6-19.6c-10.8,0-19.6,8.8-19.6,19.6C31.4,121.8,40.2,130.6,51,130.6z M51,105.4c3.1,0,5.6,2.5,5.6,5.6
	c0,3.1-2.5,5.6-5.6,5.6c-3.1,0-5.6-2.5-5.6-5.6C45.4,107.9,47.9,105.4,51,105.4z M161.6,211h94.9c3.9,0,7-3.1,7-7V101.3
	c0-3.9-3.1-7-7-7h-94.9c-3.9,0-7,3.1-7,7V204C154.6,207.9,157.7,211,161.6,211z M168.6,108.3h80.9V197h-80.9V108.3z M82.3,123.6
	c0-3.9,3.1-7,7-7h25.1c3.9,0,7,3.1,7,7s-3.1,7-7,7H89.3C85.4,130.6,82.3,127.5,82.3,123.6z M283.8,281.3h94.9c3.9,0,7-3.1,7-7v-86.5
	c0-3.9-3.1-7-7-7h-94.9c-3.9,0-7,3.1-7,7v86.5C276.8,278.2,279.9,281.3,283.8,281.3z M290.8,194.8h80.9v72.5h-80.9V194.8z
	 M283.8,165h94.9c3.9,0,7-3.1,7-7v-56.7c0-3.9-3.1-7-7-7h-94.9c-3.9,0-7,3.1-7,7V158C276.8,161.8,279.9,165,283.8,165z M290.8,108.3
	h80.9V151h-80.9V108.3z M82.3,101.3c0-3.9,3.1-7,7-7h43.6c3.9,0,7,3.1,7,7s-3.1,7-7,7H89.3C85.4,108.3,82.3,105.2,82.3,101.3z"/>
</svg>
